<?xml version="1.0" standalone="no"?><svg version="1.0" xmlns="http://www.w3.org/2000/svg" viewBox="841 1158 1454 815" preserveAspectRatio="xMidYMid meet"><g transform="translate(0.000000,3126.000000) scale(0.100000,-0.100000)" fill="#000000" stroke="none"><path d="M18570 19669 c-420 -42 -750 -111 -1065 -225 -122 -45 -179 -66 -233 -91 -29 -12 -55 -23 -58 -23 -7 0 -229 -111 -299 -150 -78 -43 -164 -96 -300 -185 -396 -258 -805 -654 -1074 -1040 -82 -117 -201 -301 -201 -311 0 -2 -12 -23 -26 -46 -41 -65 -158 -304 -202 -413 -85 -212 -112 -295 -162 -495 -38 -148 -51 -209 -86 -400 -42 -227 -83 -357 -165 -526 -75 -154 -160 -274 -279 -392 -170 -169 -362 -289 -583 -363 -121 -41 -141 -46 -277 -69 -112 -20 -170 -20 -2626 -20 -2281 0 -2512 -1 -2518 -16 -9 -23 -7 -3327 2 -3341 6 -9 186 -13 730 -17 625 -4 724 -2 737 10 13 13 15 142 14 950 0 514 3 939 6 944 4 6 647 10 1798 10 1052 0 1835 4 1897 9 202 19 319 41 565 106 316 84 641 238 915 434 114 82 114 82 239 190 387 333 676 764 862 1283 34 96 88 281 102 348 3 14 17 84 32 155 15 72 29 141 32 155 19 111 67 275 124 425 148 395 388 737 715 1021 78 68 345 264 359 264 3 0 22 10 43 23 144 91 358 184 542 237 149 43 241 62 440 91 109 16 488 15 605 0 99 -14 326 -57 365 -70 14 -4 52 -16 85 -26 33 -9 69 -21 80 -25 11 -4 36 -14 55 -20 117 -42 371 -167 487 -240 240 -151 503 -384 654 -580 206 -266 361 -570 455 -888 61 -206 74 -271 99 -497 73 -656 -141 -1366 -575 -1903 -367 -455 -919 -795 -1460 -900 -30 -6 -78 -15 -107 -21 -29 -6 -135 -18 -236 -28 -173 -16 -196 -16 -383 0 -109 10 -217 21 -239 26 -22 5 -67 15 -100 22 -33 6 -91 21 -130 31 -38 11 -83 23 -100 28 -152 41 -457 183 -637 297 -338 214 -646 534 -858 892 -33 57 -60 104 -60 106 0 1 -20 45 -44 96 -24 52 -53 115 -64 142 -12 26 -23 47 -25 47 -3 0 -40 -53 -83 -117 -216 -329 -463 -612 -724 -833 -95 -81 -98 -83 -182 -149 -73 -57 -77 -63 -68 -87 16 -41 192 -300 271 -399 135 -167 406 -455 529 -560 123 -105 165 -139 250 -201 143 -105 273 -189 465 -299 56 -33 208 -108 305 -153 297 -136 626 -238 935 -291 33 -5 87 -15 120 -20 263 -46 800 -60 1070 -27 252 30 526 86 720 147 86 26 128 40 205 69 47 17 97 35 111 40 14 4 56 22 93 39 37 17 70 31 72 31 3 0 49 21 102 47 918 448 1637 1215 2016 2150 137 339 197 559 265 973 51 314 51 793 0 1115 -31 196 -93 491 -118 565 -5 14 -17 52 -26 85 -220 772 -766 1553 -1436 2055 -118 89 -285 201 -364 246 -11 6 -49 28 -85 49 -100 57 -326 169 -415 205 -44 17 -89 35 -100 40 -19 8 -143 53 -195 70 -118 40 -257 76 -475 125 -117 26 -298 51 -462 65 -142 12 -540 11 -663 -1z"></path><path d="M8420 19401 c-11 -22 -13 -3859 -1 -3901 l7 -25 724 -3 c476 -1 727 1 734 8 7 7 11 428 12 1233 2 672 3 1225 3 1230 1 4 805 7 1789 7 1507 0 1802 -2 1883 -15 197 -29 359 -85 534 -185 123 -70 299 -224 390 -344 28 -36 57 -65 66 -66 10 0 26 28 48 83 19 45 53 124 77 176 24 51 44 94 44 96 0 4 118 217 130 235 5 8 18 31 29 50 68 124 298 441 420 579 83 94 83 96 31 143 -88 78 -277 214 -390 282 -343 206 -631 313 -1058 391 -253 46 -147 45 -2884 45 -2538 0 -2577 0 -2588 -19z"></path></g></svg>
